{
	"asset":{
		"generator":"Khronos glTF Blender I/O v4.4.55",
		"version":"2.0"
	},
	"extensionsUsed":[
		"KHR_texture_transform"
	],
	"extensionsRequired":[
		"KHR_texture_transform"
	],
	"scene":0,
	"scenes":[
		{
			"name":"Scene",
			"nodes":[
				0
			]
		}
	],
	"nodes":[
		{
			"mesh":0,
			"name":"Wall"
		}
	],
	"materials":[
		{
			"doubleSided":true,
			"name":"Wall",
			"normalTexture":{
				"extensions":{
					"KHR_texture_transform":{
						"offset":[
							0,
							-1
						],
						"scale":[
							2,
							2
						]
					}
				},
				"index":0,
				"scale":3
			},
			"pbrMetallicRoughness":{
				"baseColorFactor":[
					0.800000011920929,
					0.800000011920929,
					0.800000011920929,
					1
				],
				"metallicFactor":0,
				"roughnessFactor":0.5
			}
		},
		{
			"doubleSided":true,
			"name":"Rim",
			"normalTexture":{
				"index":1,
				"scale":6.299999713897705
			},
			"pbrMetallicRoughness":{
				"baseColorTexture":{
					"index":2
				},
				"metallicFactor":0
			}
		},
		{
			"doubleSided":true,
			"name":"Floor",
			"normalTexture":{
				"extensions":{
					"KHR_texture_transform":{
						"offset":[
							0,
							-1
						],
						"scale":[
							2,
							2
						]
					}
				},
				"index":3,
				"scale":3
			},
			"pbrMetallicRoughness":{
				"baseColorFactor":[
					0.800000011920929,
					0.800000011920929,
					0.800000011920929,
					1
				],
				"metallicFactor":0,
				"roughnessFactor":0.5
			}
		}
	],
	"meshes":[
		{
			"name":"Grid.004",
			"primitives":[
				{
					"attributes":{
						"POSITION":0,
						"NORMAL":1,
						"TEXCOORD_0":2
					},
					"indices":3,
					"material":0
				},
				{
					"attributes":{
						"POSITION":4,
						"NORMAL":5,
						"TEXCOORD_0":6
					},
					"indices":7,
					"material":1
				},
				{
					"attributes":{
						"POSITION":8,
						"NORMAL":9,
						"TEXCOORD_0":10
					},
					"indices":11,
					"material":2
				}
			]
		}
	],
	"textures":[
		{
			"sampler":0,
			"source":0
		},
		{
			"sampler":0,
			"source":1
		},
		{
			"sampler":0,
			"source":2
		},
		{
			"sampler":0,
			"source":0
		}
	],
	"images":[
		{
			"mimeType":"image/png",
			"name":"normaltest",
			"uri":"normaltest.png"
		},
		{
			"mimeType":"image/png",
			"name":"rim_normal",
			"uri":"rim_normal.png"
		},
		{
			"mimeType":"image/png",
			"name":"rim_texture",
			"uri":"rim_texture.png"
		}
	],
	"accessors":[
		{
			"bufferView":0,
			"componentType":5126,
			"count":2544,
			"max":[
				3.812000274658203,
				0,
				4
			],
			"min":[
				-2.01200008392334,
				-0.40000009536743164,
				-0.8120002150535583
			],
			"type":"VEC3"
		},
		{
			"bufferView":1,
			"componentType":5126,
			"count":2544,
			"type":"VEC3"
		},
		{
			"bufferView":2,
			"componentType":5126,
			"count":2544,
			"type":"VEC2"
		},
		{
			"bufferView":3,
			"componentType":5123,
			"count":5184,
			"type":"SCALAR"
		},
		{
			"bufferView":4,
			"componentType":5126,
			"count":1692,
			"max":[
				3.812000274658203,
				0,
				4
			],
			"min":[
				-2.01200008392334,
				-2.9802322387695312e-08,
				-0.8120002150535583
			],
			"type":"VEC3"
		},
		{
			"bufferView":5,
			"componentType":5126,
			"count":1692,
			"type":"VEC3"
		},
		{
			"bufferView":6,
			"componentType":5126,
			"count":1692,
			"type":"VEC2"
		},
		{
			"bufferView":7,
			"componentType":5123,
			"count":2538,
			"type":"SCALAR"
		},
		{
			"bufferView":8,
			"componentType":5126,
			"count":949,
			"max":[
				3.8000001907348633,
				-0.399517297744751,
				4
			],
			"min":[
				-2.01200008392334,
				-0.40000009536743164,
				-0.8000001907348633
			],
			"type":"VEC3"
		},
		{
			"bufferView":9,
			"componentType":5126,
			"count":949,
			"type":"VEC3"
		},
		{
			"bufferView":10,
			"componentType":5126,
			"count":949,
			"type":"VEC2"
		},
		{
			"bufferView":11,
			"componentType":5123,
			"count":3582,
			"type":"SCALAR"
		}
	],
	"bufferViews":[
		{
			"buffer":0,
			"byteLength":30528,
			"byteOffset":0,
			"target":34962
		},
		{
			"buffer":0,
			"byteLength":30528,
			"byteOffset":30528,
			"target":34962
		},
		{
			"buffer":0,
			"byteLength":20352,
			"byteOffset":61056,
			"target":34962
		},
		{
			"buffer":0,
			"byteLength":10368,
			"byteOffset":81408,
			"target":34963
		},
		{
			"buffer":0,
			"byteLength":20304,
			"byteOffset":91776,
			"target":34962
		},
		{
			"buffer":0,
			"byteLength":20304,
			"byteOffset":112080,
			"target":34962
		},
		{
			"buffer":0,
			"byteLength":13536,
			"byteOffset":132384,
			"target":34962
		},
		{
			"buffer":0,
			"byteLength":5076,
			"byteOffset":145920,
			"target":34963
		},
		{
			"buffer":0,
			"byteLength":11388,
			"byteOffset":150996,
			"target":34962
		},
		{
			"buffer":0,
			"byteLength":11388,
			"byteOffset":162384,
			"target":34962
		},
		{
			"buffer":0,
			"byteLength":7592,
			"byteOffset":173772,
			"target":34962
		},
		{
			"buffer":0,
			"byteLength":7164,
			"byteOffset":181364,
			"target":34963
		}
	],
	"samplers":[
		{
			"magFilter":9729,
			"minFilter":9987
		}
	],
	"buffers":[
		{
			"byteLength":188528,
			"uri":"try1.bin"
		}
	]
}
