{
	"asset":{
		"generator":"Khronos glTF Blender I/O v4.4.55",
		"version":"2.0"
	},
	"extensionsUsed":[
		"KHR_materials_unlit"
	],
	"scene":0,
	"scenes":[
		{
			"name":"Scene",
			"nodes":[
				0,
				1
			]
		}
	],
	"nodes":[
		{
			"mesh":0,
			"name":"black.003",
			"rotation":[
				0.7071068286895752,
				0,
				0,
				0.7071068286895752
			],
			"translation":[
				-1,
				3.720794200897217,
				0.9854361414909363
			]
		},
		{
			"mesh":1,
			"name":"black.002",
			"rotation":[
				0.7071068286895752,
				0,
				0,
				0.7071068286895752
			],
			"translation":[
				-1,
				3.720794200897217,
				0.9854361414909363
			]
		}
	],
	"materials":[
		{
			"doubleSided":true,
			"extensions":{
				"KHR_materials_unlit":{}
			},
			"name":"Material.002",
			"pbrMetallicRoughness":{
				"baseColorTexture":{
					"index":0
				},
				"metallicFactor":0,
				"roughnessFactor":0.9
			}
		}
	],
	"meshes":[
		{
			"name":"Grid.003",
			"primitives":[
				{
					"attributes":{
						"POSITION":0,
						"NORMAL":1,
						"TEXCOORD_0":2
					},
					"indices":3,
					"material":0
				}
			]
		},
		{
			"name":"Grid.002",
			"primitives":[
				{
					"attributes":{
						"POSITION":4,
						"NORMAL":5,
						"TEXCOORD_0":6
					},
					"indices":7,
					"material":0
				}
			]
		}
	],
	"textures":[
		{
			"sampler":0,
			"source":0
		}
	],
	"images":[
		{
			"mimeType":"image/png",
			"name":"stealay_logo",
			"uri":"stealay_logo.png"
		}
	],
	"accessors":[
		{
			"bufferView":0,
			"componentType":5126,
			"count":546,
			"max":[
				2.639509439468384,
				0.6334580779075623,
				0.07280802726745605
			],
			"min":[
				-2.552734136581421,
				-0.7853618264198303,
				-0.07280409336090088
			],
			"type":"VEC3"
		},
		{
			"bufferView":1,
			"componentType":5126,
			"count":546,
			"type":"VEC3"
		},
		{
			"bufferView":2,
			"componentType":5126,
			"count":546,
			"type":"VEC2"
		},
		{
			"bufferView":3,
			"componentType":5123,
			"count":1044,
			"type":"SCALAR"
		},
		{
			"bufferView":4,
			"componentType":5126,
			"count":584,
			"max":[
				3.119999885559082,
				0.854285717010498,
				0.07280933856964111
			],
			"min":[
				-2.880000114440918,
				-0.9457142353057861,
				-0.0728033185005188
			],
			"type":"VEC3"
		},
		{
			"bufferView":5,
			"componentType":5126,
			"count":584,
			"type":"VEC3"
		},
		{
			"bufferView":6,
			"componentType":5126,
			"count":584,
			"type":"VEC2"
		},
		{
			"bufferView":7,
			"componentType":5123,
			"count":1668,
			"type":"SCALAR"
		}
	],
	"bufferViews":[
		{
			"buffer":0,
			"byteLength":6552,
			"byteOffset":0,
			"target":34962
		},
		{
			"buffer":0,
			"byteLength":6552,
			"byteOffset":6552,
			"target":34962
		},
		{
			"buffer":0,
			"byteLength":4368,
			"byteOffset":13104,
			"target":34962
		},
		{
			"buffer":0,
			"byteLength":2088,
			"byteOffset":17472,
			"target":34963
		},
		{
			"buffer":0,
			"byteLength":7008,
			"byteOffset":19560,
			"target":34962
		},
		{
			"buffer":0,
			"byteLength":7008,
			"byteOffset":26568,
			"target":34962
		},
		{
			"buffer":0,
			"byteLength":4672,
			"byteOffset":33576,
			"target":34962
		},
		{
			"buffer":0,
			"byteLength":3336,
			"byteOffset":38248,
			"target":34963
		}
	],
	"samplers":[
		{
			"magFilter":9729,
			"minFilter":9987
		}
	],
	"buffers":[
		{
			"byteLength":41584,
			"uri":"stealay3d.bin"
		}
	]
}
