{
	"asset":{
		"generator":"Khronos glTF Blender I/O v4.4.55",
		"version":"2.0"
	},
	"scene":0,
	"scenes":[
		{
			"name":"Scene",
			"nodes":[
				0,
				1,
				3,
				6,
				7
			]
		}
	],
	"nodes":[
		{
			"mesh":0,
			"name":"Body",
			"translation":[
				0,
				2.2340543270111084,
				0
			]
		},
		{
			"mesh":1,
			"name":"Head",
			"rotation":[
				0,
				0.7071068286895752,
				0,
				0.7071068286895752
			],
			"scale":[
				0.6835461854934692,
				0.1964273899793625,
				0.6835461854934692
			],
			"translation":[
				0.026824042201042175,
				5.066579818725586,
				-0.008859619498252869
			]
		},
		{
			"mesh":2,
			"name":"Arms.001",
			"scale":[
				2.965791702270508,
				2.965791702270508,
				2.7697346210479736
			]
		},
		{
			"children":[
				2
			],
			"mesh":3,
			"name":"HandR",
			"scale":[
				0.337178111076355,
				0.337178111076355,
				0.337178111076355
			],
			"translation":[
				0,
				3.365931510925293,
				-1.0308642387390137
			]
		},
		{
			"mesh":4,
			"name":"Arms",
			"rotation":[
				0,
				0,
				0.7071067094802856,
				0.7071068286895752
			],
			"scale":[
				1.604101538658142,
				5.030740261077881,
				4.698177337646484
			],
			"translation":[
				4.58641242980957,
				0,
				-5.186009407043457
			]
		},
		{
			"mesh":5,
			"name":"HandL",
			"rotation":[
				0.7071067094802856,
				-0.7071068286895752,
				0,
				3.612943828557036e-07
			],
			"scale":[
				0.5408679246902466,
				1.6962554454803467,
				1.6962554454803467
			],
			"translation":[
				-3.814697265625e-06,
				0,
				0
			]
		},
		{
			"children":[
				4,
				5
			],
			"mesh":6,
			"name":"Crowbar",
			"rotation":[
				0,
				0,
				-0.7071068286895752,
				0.7071068286895752
			],
			"scale":[
				0.19877789914608002,
				0.623401939868927,
				0.19877789914608002
			],
			"translation":[
				0,
				3.3659310340881348,
				1.0308640003204346
			]
		},
		{
			"mesh":7,
			"name":"Cylinder",
			"rotation":[
				0.698556661605835,
				-0.10962919890880585,
				0.10962919890880585,
				0.6985567212104797
			],
			"scale":[
				0.39026114344596863,
				0.39026114344596863,
				0.390261173248291
			],
			"translation":[
				-1.0988229513168335,
				2.110020399093628,
				-0.28030872344970703
			]
		}
	],
	"animations":[
		{
			"channels":[
				{
					"sampler":0,
					"target":{
						"node":3,
						"path":"rotation"
					}
				}
			],
			"name":"HandRAction",
			"samplers":[
				{
					"input":35,
					"interpolation":"LINEAR",
					"output":36
				}
			]
		},
		{
			"channels":[
				{
					"sampler":0,
					"target":{
						"node":3,
						"path":"rotation"
					}
				}
			],
			"name":"Victory",
			"samplers":[
				{
					"input":37,
					"interpolation":"LINEAR",
					"output":38
				}
			]
		},
		{
			"channels":[
				{
					"sampler":0,
					"target":{
						"node":6,
						"path":"rotation"
					}
				}
			],
			"name":"WalkAnimation",
			"samplers":[
				{
					"input":39,
					"interpolation":"LINEAR",
					"output":40
				}
			]
		}
	],
	"materials":[
		{
			"doubleSided":true,
			"name":"Material.013",
			"pbrMetallicRoughness":{
				"baseColorFactor":[
					0.007135623600333929,
					0.007135623600333929,
					0.007135623600333929,
					1
				],
				"metallicFactor":0,
				"roughnessFactor":0.5
			}
		},
		{
			"doubleSided":true,
			"name":"Material.010",
			"pbrMetallicRoughness":{
				"baseColorFactor":[
					0.003992554731667042,
					0.003992554731667042,
					0.003992554731667042,
					1
				],
				"metallicFactor":0,
				"roughnessFactor":0.5
			}
		},
		{
			"doubleSided":true,
			"name":"Material.016",
			"pbrMetallicRoughness":{
				"baseColorFactor":[
					0.3864946961402893,
					0.2541409730911255,
					0.1470167189836502,
					1
				],
				"metallicFactor":0,
				"roughnessFactor":0.5
			}
		},
		{
			"doubleSided":true,
			"name":"Material.017",
			"pbrMetallicRoughness":{
				"baseColorFactor":[
					0.3864946961402893,
					0.2541409730911255,
					0.1470167189836502,
					1
				],
				"metallicFactor":0,
				"roughnessFactor":0.5
			}
		},
		{
			"doubleSided":true,
			"name":"Material.018",
			"pbrMetallicRoughness":{
				"baseColorFactor":[
					0.009501082822680473,
					0.009501082822680473,
					0.009501082822680473,
					1
				],
				"metallicFactor":0,
				"roughnessFactor":0.5
			}
		}
	],
	"meshes":[
		{
			"name":"Cube",
			"primitives":[
				{
					"attributes":{
						"POSITION":0,
						"NORMAL":1,
						"TEXCOORD_0":2
					},
					"indices":3,
					"material":0
				}
			]
		},
		{
			"name":"Cube.004",
			"primitives":[
				{
					"attributes":{
						"POSITION":4,
						"NORMAL":5,
						"TEXCOORD_0":6
					},
					"indices":7,
					"material":1
				},
				{
					"attributes":{
						"POSITION":8,
						"NORMAL":9,
						"TEXCOORD_0":10
					},
					"indices":11,
					"material":2
				}
			]
		},
		{
			"name":"Cube.003",
			"primitives":[
				{
					"attributes":{
						"POSITION":12,
						"NORMAL":13,
						"TEXCOORD_0":14
					},
					"indices":15,
					"material":0
				}
			]
		},
		{
			"name":"Sphere",
			"primitives":[
				{
					"attributes":{
						"POSITION":16,
						"NORMAL":17,
						"TEXCOORD_0":18
					},
					"indices":19,
					"material":2
				}
			]
		},
		{
			"name":"Cube.005",
			"primitives":[
				{
					"attributes":{
						"POSITION":20,
						"NORMAL":21,
						"TEXCOORD_0":22
					},
					"indices":23,
					"material":0
				}
			]
		},
		{
			"name":"Sphere.001",
			"primitives":[
				{
					"attributes":{
						"POSITION":24,
						"NORMAL":25,
						"TEXCOORD_0":26
					},
					"indices":19,
					"material":3
				}
			]
		},
		{
			"name":"Cylinder.001",
			"primitives":[
				{
					"attributes":{
						"POSITION":27,
						"NORMAL":28,
						"TEXCOORD_0":29
					},
					"indices":30,
					"material":4
				}
			]
		},
		{
			"name":"Cylinder",
			"primitives":[
				{
					"attributes":{
						"POSITION":31,
						"NORMAL":32,
						"TEXCOORD_0":33
					},
					"indices":34
				}
			]
		}
	],
	"accessors":[
		{
			"bufferView":0,
			"componentType":5126,
			"count":1386,
			"max":[
				0.8142596483230591,
				1.4757746458053589,
				1.1106630563735962
			],
			"min":[
				-0.8142595887184143,
				-3.1807284355163574,
				-1.1106630563735962
			],
			"type":"VEC3"
		},
		{
			"bufferView":1,
			"componentType":5126,
			"count":1386,
			"type":"VEC3"
		},
		{
			"bufferView":2,
			"componentType":5126,
			"count":1386,
			"type":"VEC2"
		},
		{
			"bufferView":3,
			"componentType":5123,
			"count":2376,
			"type":"SCALAR"
		},
		{
			"bufferView":4,
			"componentType":5126,
			"count":494,
			"max":[
				1.2085540294647217,
				1.5220017433166504,
				1.3743436336517334
			],
			"min":[
				-1.2085540294647217,
				-8.23173713684082,
				-1.2714067697525024
			],
			"type":"VEC3"
		},
		{
			"bufferView":5,
			"componentType":5126,
			"count":494,
			"type":"VEC3"
		},
		{
			"bufferView":6,
			"componentType":5126,
			"count":494,
			"type":"VEC2"
		},
		{
			"bufferView":7,
			"componentType":5123,
			"count":642,
			"type":"SCALAR"
		},
		{
			"bufferView":8,
			"componentType":5126,
			"count":70,
			"max":[
				0.6653923392295837,
				-1.2676206827163696,
				1.3103153705596924
			],
			"min":[
				-0.6653923392295837,
				-4.055197238922119,
				1.2096168994903564
			],
			"type":"VEC3"
		},
		{
			"bufferView":9,
			"componentType":5126,
			"count":70,
			"type":"VEC3"
		},
		{
			"bufferView":10,
			"componentType":5126,
			"count":70,
			"type":"VEC2"
		},
		{
			"bufferView":11,
			"componentType":5123,
			"count":102,
			"type":"SCALAR"
		},
		{
			"bufferView":12,
			"componentType":5126,
			"count":126,
			"max":[
				0.29002654552459717,
				0.08318567276000977,
				0
			],
			"min":[
				-0.29002654552459717,
				-1.9274611473083496,
				-0.5413541793823242
			],
			"type":"VEC3"
		},
		{
			"bufferView":13,
			"componentType":5126,
			"count":126,
			"type":"VEC3"
		},
		{
			"bufferView":14,
			"componentType":5126,
			"count":126,
			"type":"VEC2"
		},
		{
			"bufferView":15,
			"componentType":5123,
			"count":240,
			"type":"SCALAR"
		},
		{
			"bufferView":16,
			"componentType":5126,
			"count":118,
			"max":[
				0.9510565996170044,
				-5.27444314956665,
				0.06495416164398193
			],
			"min":[
				-0.9510565996170044,
				-7.27444314956665,
				-1.744062900543213
			],
			"type":"VEC3"
		},
		{
			"bufferView":17,
			"componentType":5126,
			"count":118,
			"type":"VEC3"
		},
		{
			"bufferView":18,
			"componentType":5126,
			"count":118,
			"type":"VEC2"
		},
		{
			"bufferView":19,
			"componentType":5123,
			"count":180,
			"type":"SCALAR"
		},
		{
			"bufferView":20,
			"componentType":5126,
			"count":126,
			"max":[
				0.29002654552459717,
				0.9948635101318359,
				1.645188570022583
			],
			"min":[
				-0.29002654552459717,
				-1.0157833099365234,
				1.1038343906402588
			],
			"type":"VEC3"
		},
		{
			"bufferView":21,
			"componentType":5126,
			"count":126,
			"type":"VEC3"
		},
		{
			"bufferView":22,
			"componentType":5126,
			"count":126,
			"type":"VEC2"
		},
		{
			"bufferView":23,
			"componentType":5123,
			"count":240,
			"type":"SCALAR"
		},
		{
			"bufferView":24,
			"componentType":5126,
			"count":118,
			"max":[
				0.9510568380355835,
				-5.274442195892334,
				0.015862107276916504
			],
			"min":[
				-0.9510563611984253,
				-7.274442195892334,
				-1.7931549549102783
			],
			"type":"VEC3"
		},
		{
			"bufferView":25,
			"componentType":5126,
			"count":118,
			"type":"VEC3"
		},
		{
			"bufferView":26,
			"componentType":5126,
			"count":118,
			"type":"VEC2"
		},
		{
			"bufferView":27,
			"componentType":5126,
			"count":286,
			"max":[
				13.286423683166504,
				3.0705294609069824,
				1.8890448808670044
			],
			"min":[
				10.040790557861328,
				-1.864656925201416,
				0.8195589780807495
			],
			"type":"VEC3"
		},
		{
			"bufferView":28,
			"componentType":5126,
			"count":286,
			"type":"VEC3"
		},
		{
			"bufferView":29,
			"componentType":5126,
			"count":286,
			"type":"VEC2"
		},
		{
			"bufferView":30,
			"componentType":5123,
			"count":420,
			"type":"SCALAR"
		},
		{
			"bufferView":31,
			"componentType":5126,
			"count":722,
			"max":[
				5.071922779083252,
				2.5053200721740723,
				2.469238042831421
			],
			"min":[
				-1.2895394563674927,
				-3.0745599269866943,
				-4.040914535522461
			],
			"type":"VEC3"
		},
		{
			"bufferView":32,
			"componentType":5126,
			"count":722,
			"type":"VEC3"
		},
		{
			"bufferView":33,
			"componentType":5126,
			"count":722,
			"type":"VEC2"
		},
		{
			"bufferView":34,
			"componentType":5123,
			"count":1218,
			"type":"SCALAR"
		},
		{
			"bufferView":35,
			"componentType":5126,
			"count":200,
			"max":[
				8.333333333333334
			],
			"min":[
				0.041666666666666664
			],
			"type":"SCALAR"
		},
		{
			"bufferView":36,
			"componentType":5126,
			"count":200,
			"type":"VEC4"
		},
		{
			"bufferView":37,
			"componentType":5126,
			"count":81,
			"max":[
				8.333333333333334
			],
			"min":[
				5
			],
			"type":"SCALAR"
		},
		{
			"bufferView":38,
			"componentType":5126,
			"count":81,
			"type":"VEC4"
		},
		{
			"bufferView":39,
			"componentType":5126,
			"count":80,
			"max":[
				3.3333333333333335
			],
			"min":[
				0.041666666666666664
			],
			"type":"SCALAR"
		},
		{
			"bufferView":40,
			"componentType":5126,
			"count":80,
			"type":"VEC4"
		}
	],
	"bufferViews":[
		{
			"buffer":0,
			"byteLength":16632,
			"byteOffset":0,
			"target":34962
		},
		{
			"buffer":0,
			"byteLength":16632,
			"byteOffset":16632,
			"target":34962
		},
		{
			"buffer":0,
			"byteLength":11088,
			"byteOffset":33264,
			"target":34962
		},
		{
			"buffer":0,
			"byteLength":4752,
			"byteOffset":44352,
			"target":34963
		},
		{
			"buffer":0,
			"byteLength":5928,
			"byteOffset":49104,
			"target":34962
		},
		{
			"buffer":0,
			"byteLength":5928,
			"byteOffset":55032,
			"target":34962
		},
		{
			"buffer":0,
			"byteLength":3952,
			"byteOffset":60960,
			"target":34962
		},
		{
			"buffer":0,
			"byteLength":1284,
			"byteOffset":64912,
			"target":34963
		},
		{
			"buffer":0,
			"byteLength":840,
			"byteOffset":66196,
			"target":34962
		},
		{
			"buffer":0,
			"byteLength":840,
			"byteOffset":67036,
			"target":34962
		},
		{
			"buffer":0,
			"byteLength":560,
			"byteOffset":67876,
			"target":34962
		},
		{
			"buffer":0,
			"byteLength":204,
			"byteOffset":68436,
			"target":34963
		},
		{
			"buffer":0,
			"byteLength":1512,
			"byteOffset":68640,
			"target":34962
		},
		{
			"buffer":0,
			"byteLength":1512,
			"byteOffset":70152,
			"target":34962
		},
		{
			"buffer":0,
			"byteLength":1008,
			"byteOffset":71664,
			"target":34962
		},
		{
			"buffer":0,
			"byteLength":480,
			"byteOffset":72672,
			"target":34963
		},
		{
			"buffer":0,
			"byteLength":1416,
			"byteOffset":73152,
			"target":34962
		},
		{
			"buffer":0,
			"byteLength":1416,
			"byteOffset":74568,
			"target":34962
		},
		{
			"buffer":0,
			"byteLength":944,
			"byteOffset":75984,
			"target":34962
		},
		{
			"buffer":0,
			"byteLength":360,
			"byteOffset":76928,
			"target":34963
		},
		{
			"buffer":0,
			"byteLength":1512,
			"byteOffset":77288,
			"target":34962
		},
		{
			"buffer":0,
			"byteLength":1512,
			"byteOffset":78800,
			"target":34962
		},
		{
			"buffer":0,
			"byteLength":1008,
			"byteOffset":80312,
			"target":34962
		},
		{
			"buffer":0,
			"byteLength":480,
			"byteOffset":81320,
			"target":34963
		},
		{
			"buffer":0,
			"byteLength":1416,
			"byteOffset":81800,
			"target":34962
		},
		{
			"buffer":0,
			"byteLength":1416,
			"byteOffset":83216,
			"target":34962
		},
		{
			"buffer":0,
			"byteLength":944,
			"byteOffset":84632,
			"target":34962
		},
		{
			"buffer":0,
			"byteLength":3432,
			"byteOffset":85576,
			"target":34962
		},
		{
			"buffer":0,
			"byteLength":3432,
			"byteOffset":89008,
			"target":34962
		},
		{
			"buffer":0,
			"byteLength":2288,
			"byteOffset":92440,
			"target":34962
		},
		{
			"buffer":0,
			"byteLength":840,
			"byteOffset":94728,
			"target":34963
		},
		{
			"buffer":0,
			"byteLength":8664,
			"byteOffset":95568,
			"target":34962
		},
		{
			"buffer":0,
			"byteLength":8664,
			"byteOffset":104232,
			"target":34962
		},
		{
			"buffer":0,
			"byteLength":5776,
			"byteOffset":112896,
			"target":34962
		},
		{
			"buffer":0,
			"byteLength":2436,
			"byteOffset":118672,
			"target":34963
		},
		{
			"buffer":0,
			"byteLength":800,
			"byteOffset":121108
		},
		{
			"buffer":0,
			"byteLength":3200,
			"byteOffset":121908
		},
		{
			"buffer":0,
			"byteLength":324,
			"byteOffset":125108
		},
		{
			"buffer":0,
			"byteLength":1296,
			"byteOffset":125432
		},
		{
			"buffer":0,
			"byteLength":320,
			"byteOffset":126728
		},
		{
			"buffer":0,
			"byteLength":1280,
			"byteOffset":127048
		}
	],
	"buffers":[
		{
			"byteLength":128328,
			"uri":"PlayerGuy_Angemalen_Animation.bin"
		}
	]
}
