{
	"asset":{
		"generator":"Khronos glTF Blender I/O v4.4.55",
		"version":"2.0"
	},
	"extensionsUsed":[
		"KHR_materials_unlit"
	],
	"scene":0,
	"scenes":[
		{
			"name":"Scene",
			"nodes":[
				9
			]
		}
	],
	"nodes":[
		{
			"mesh":0,
			"name":"Cube.007",
			"rotation":[
				0,
				0,
				-0.16988018155097961,
				0.9854647517204285
			],
			"scale":[
				0.34514468908309937,
				0.1477232575416565,
				1.7731587886810303
			],
			"translation":[
				-0.14406824111938477,
				-0.7563876509666443,
				-2.2049214839935303
			]
		},
		{
			"children":[
				0
			],
			"mesh":1,
			"name":"Cube.006",
			"rotation":[
				0,
				0,
				0.12012892216444016,
				0.9927583932876587
			],
			"scale":[
				0.2036610096693039,
				0.57780522108078,
				0.24254107475280762
			],
			"translation":[
				-0.149255633354187,
				-0.5018538236618042,
				0
			]
		},
		{
			"children":[
				1
			],
			"name":"Empty",
			"rotation":[
				-0.8781988620758057,
				0,
				0,
				0.4782959222793579
			],
			"scale":[
				1.730686902999878,
				1.7306870222091675,
				1.7306870222091675
			],
			"translation":[
				1.417149305343628,
				0,
				6.76257848739624
			]
		},
		{
			"mesh":2,
			"name":"Cube.005",
			"rotation":[
				0.9927583336830139,
				-0.12012889981269836,
				0,
				1.4230071343490636e-08
			],
			"scale":[
				-0.20366103947162628,
				-0.5778052806854248,
				-0.24254107475280762
			],
			"translation":[
				0.8996250033378601,
				-1.443000316619873,
				0
			]
		},
		{
			"children":[
				3
			],
			"name":"Empty.001",
			"rotation":[
				-0.5407900810241699,
				0,
				0,
				0.8411576151847839
			],
			"scale":[
				1.730686902999878,
				1.730686902999878,
				1.730686902999878
			],
			"translation":[
				-1.556969165802002,
				0,
				6.76257848739624
			]
		},
		{
			"mesh":3,
			"name":"Cube.008",
			"translation":[
				0,
				-2.895871639251709,
				0
			]
		},
		{
			"children":[
				5
			],
			"name":"Empty.002",
			"rotation":[
				-0.7071068286895752,
				0,
				0,
				0.7071068286895752
			],
			"translation":[
				0,
				0,
				6.410525321960449
			]
		},
		{
			"mesh":4,
			"name":"Cube.004",
			"translation":[
				0,
				1.9784879684448242,
				0
			]
		},
		{
			"children":[
				7
			],
			"name":"Empty.004",
			"rotation":[
				-0.7071068286895752,
				0,
				0,
				0.7071068286895752
			],
			"translation":[
				0,
				0,
				11.238448143005371
			]
		},
		{
			"children":[
				2,
				4,
				6,
				8
			],
			"name":"Empty.003",
			"rotation":[
				0.7071068286895752,
				0,
				0,
				0.7071068286895752
			],
			"translation":[
				0,
				9.259960174560547,
				0
			]
		}
	],
	"animations":[
		{
			"channels":[
				{
					"sampler":0,
					"target":{
						"node":2,
						"path":"translation"
					}
				},
				{
					"sampler":1,
					"target":{
						"node":2,
						"path":"rotation"
					}
				},
				{
					"sampler":2,
					"target":{
						"node":2,
						"path":"scale"
					}
				}
			],
			"name":"EmptyAction",
			"samplers":[
				{
					"input":23,
					"interpolation":"STEP",
					"output":24
				},
				{
					"input":25,
					"interpolation":"LINEAR",
					"output":26
				},
				{
					"input":23,
					"interpolation":"STEP",
					"output":27
				}
			]
		},
		{
			"channels":[
				{
					"sampler":0,
					"target":{
						"node":4,
						"path":"translation"
					}
				},
				{
					"sampler":1,
					"target":{
						"node":4,
						"path":"rotation"
					}
				},
				{
					"sampler":2,
					"target":{
						"node":4,
						"path":"scale"
					}
				}
			],
			"name":"Empty.001Action",
			"samplers":[
				{
					"input":23,
					"interpolation":"STEP",
					"output":28
				},
				{
					"input":25,
					"interpolation":"LINEAR",
					"output":29
				},
				{
					"input":23,
					"interpolation":"STEP",
					"output":30
				}
			]
		},
		{
			"channels":[
				{
					"sampler":0,
					"target":{
						"node":6,
						"path":"translation"
					}
				},
				{
					"sampler":1,
					"target":{
						"node":6,
						"path":"rotation"
					}
				},
				{
					"sampler":2,
					"target":{
						"node":6,
						"path":"scale"
					}
				}
			],
			"name":"Empty.002Action",
			"samplers":[
				{
					"input":23,
					"interpolation":"STEP",
					"output":31
				},
				{
					"input":25,
					"interpolation":"LINEAR",
					"output":32
				},
				{
					"input":23,
					"interpolation":"STEP",
					"output":33
				}
			]
		}
	],
	"materials":[
		{
			"doubleSided":true,
			"name":"FlashLightA",
			"pbrMetallicRoughness":{
				"baseColorFactor":[
					0.800000011920929,
					0.800000011920929,
					0.800000011920929,
					1
				],
				"metallicFactor":0,
				"roughnessFactor":0.5
			}
		},
		{
			"doubleSided":true,
			"name":"FlashLightB",
			"pbrMetallicRoughness":{
				"baseColorFactor":[
					0.800000011920929,
					0.800000011920929,
					0.800000011920929,
					1
				],
				"metallicFactor":0,
				"roughnessFactor":0.5
			}
		},
		{
			"doubleSided":true,
			"extensions":{
				"KHR_materials_unlit":{}
			},
			"name":"GUARDMAT",
			"pbrMetallicRoughness":{
				"baseColorTexture":{
					"index":0
				},
				"metallicFactor":0,
				"roughnessFactor":0.9
			}
		}
	],
	"meshes":[
		{
			"name":"Cube.008",
			"primitives":[
				{
					"attributes":{
						"POSITION":0,
						"NORMAL":1,
						"TEXCOORD_0":2
					},
					"indices":3,
					"material":0
				},
				{
					"attributes":{
						"POSITION":4,
						"NORMAL":5,
						"TEXCOORD_0":6
					},
					"indices":7,
					"material":1
				}
			]
		},
		{
			"name":"Cube.007",
			"primitives":[
				{
					"attributes":{
						"POSITION":8,
						"NORMAL":9,
						"TEXCOORD_0":10
					},
					"indices":11,
					"material":2
				}
			]
		},
		{
			"name":"Cube.006",
			"primitives":[
				{
					"attributes":{
						"POSITION":12,
						"NORMAL":13,
						"TEXCOORD_0":14
					},
					"indices":11,
					"material":2
				}
			]
		},
		{
			"name":"Cube.009",
			"primitives":[
				{
					"attributes":{
						"POSITION":15,
						"NORMAL":16,
						"TEXCOORD_0":17
					},
					"indices":18,
					"material":2
				}
			]
		},
		{
			"name":"Cube.005",
			"primitives":[
				{
					"attributes":{
						"POSITION":19,
						"NORMAL":20,
						"TEXCOORD_0":21
					},
					"indices":22,
					"material":2
				}
			]
		}
	],
	"textures":[
		{
			"sampler":0,
			"source":0
		}
	],
	"images":[
		{
			"mimeType":"image/png",
			"name":"guardtext",
			"uri":"guardtext.png"
		}
	],
	"accessors":[
		{
			"bufferView":0,
			"componentType":5126,
			"count":60,
			"max":[
				1.623751163482666,
				1.623751163482666,
				1
			],
			"min":[
				-1.623751163482666,
				-1.623751163482666,
				-0.8195559978485107
			],
			"type":"VEC3"
		},
		{
			"bufferView":1,
			"componentType":5126,
			"count":60,
			"type":"VEC3"
		},
		{
			"bufferView":2,
			"componentType":5126,
			"count":60,
			"type":"VEC2"
		},
		{
			"bufferView":3,
			"componentType":5123,
			"count":102,
			"type":"SCALAR"
		},
		{
			"bufferView":4,
			"componentType":5126,
			"count":20,
			"max":[
				1.1981008052825928,
				1.1981008052825928,
				-0.6588410139083862
			],
			"min":[
				-1.1981008052825928,
				-1.1981008052825928,
				-0.819555938243866
			],
			"type":"VEC3"
		},
		{
			"bufferView":5,
			"componentType":5126,
			"count":20,
			"type":"VEC3"
		},
		{
			"bufferView":6,
			"componentType":5126,
			"count":20,
			"type":"VEC2"
		},
		{
			"bufferView":7,
			"componentType":5123,
			"count":30,
			"type":"SCALAR"
		},
		{
			"bufferView":8,
			"componentType":5126,
			"count":36,
			"max":[
				1,
				1,
				1
			],
			"min":[
				-1,
				-1,
				-1
			],
			"type":"VEC3"
		},
		{
			"bufferView":9,
			"componentType":5126,
			"count":36,
			"type":"VEC3"
		},
		{
			"bufferView":10,
			"componentType":5126,
			"count":36,
			"type":"VEC2"
		},
		{
			"bufferView":11,
			"componentType":5123,
			"count":60,
			"type":"SCALAR"
		},
		{
			"bufferView":12,
			"componentType":5126,
			"count":36,
			"max":[
				5.295055866241455,
				2.3054158687591553,
				1
			],
			"min":[
				3.295055866241455,
				0.3054158687591553,
				-1
			],
			"type":"VEC3"
		},
		{
			"bufferView":13,
			"componentType":5126,
			"count":36,
			"type":"VEC3"
		},
		{
			"bufferView":14,
			"componentType":5126,
			"count":36,
			"type":"VEC2"
		},
		{
			"bufferView":15,
			"componentType":5126,
			"count":72,
			"max":[
				0.963391900062561,
				4.51638126373291,
				0.963391900062561
			],
			"min":[
				-0.963391900062561,
				2.9050426483154297,
				-0.963391900062561
			],
			"type":"VEC3"
		},
		{
			"bufferView":16,
			"componentType":5126,
			"count":72,
			"type":"VEC3"
		},
		{
			"bufferView":17,
			"componentType":5126,
			"count":72,
			"type":"VEC2"
		},
		{
			"bufferView":18,
			"componentType":5123,
			"count":108,
			"type":"SCALAR"
		},
		{
			"bufferView":19,
			"componentType":5126,
			"count":56,
			"max":[
				1,
				2.9050426483154297,
				1
			],
			"min":[
				-1,
				-1,
				-1
			],
			"type":"VEC3"
		},
		{
			"bufferView":20,
			"componentType":5126,
			"count":56,
			"type":"VEC3"
		},
		{
			"bufferView":21,
			"componentType":5126,
			"count":56,
			"type":"VEC2"
		},
		{
			"bufferView":22,
			"componentType":5123,
			"count":84,
			"type":"SCALAR"
		},
		{
			"bufferView":23,
			"componentType":5126,
			"count":2,
			"max":[
				2.3333333333333335
			],
			"min":[
				0.041666666666666664
			],
			"type":"SCALAR"
		},
		{
			"bufferView":24,
			"componentType":5126,
			"count":2,
			"type":"VEC3"
		},
		{
			"bufferView":25,
			"componentType":5126,
			"count":56,
			"max":[
				2.3333333333333335
			],
			"min":[
				0.041666666666666664
			],
			"type":"SCALAR"
		},
		{
			"bufferView":26,
			"componentType":5126,
			"count":56,
			"type":"VEC4"
		},
		{
			"bufferView":27,
			"componentType":5126,
			"count":2,
			"type":"VEC3"
		},
		{
			"bufferView":28,
			"componentType":5126,
			"count":2,
			"type":"VEC3"
		},
		{
			"bufferView":29,
			"componentType":5126,
			"count":56,
			"type":"VEC4"
		},
		{
			"bufferView":30,
			"componentType":5126,
			"count":2,
			"type":"VEC3"
		},
		{
			"bufferView":31,
			"componentType":5126,
			"count":2,
			"type":"VEC3"
		},
		{
			"bufferView":32,
			"componentType":5126,
			"count":56,
			"type":"VEC4"
		},
		{
			"bufferView":33,
			"componentType":5126,
			"count":2,
			"type":"VEC3"
		}
	],
	"bufferViews":[
		{
			"buffer":0,
			"byteLength":720,
			"byteOffset":0,
			"target":34962
		},
		{
			"buffer":0,
			"byteLength":720,
			"byteOffset":720,
			"target":34962
		},
		{
			"buffer":0,
			"byteLength":480,
			"byteOffset":1440,
			"target":34962
		},
		{
			"buffer":0,
			"byteLength":204,
			"byteOffset":1920,
			"target":34963
		},
		{
			"buffer":0,
			"byteLength":240,
			"byteOffset":2124,
			"target":34962
		},
		{
			"buffer":0,
			"byteLength":240,
			"byteOffset":2364,
			"target":34962
		},
		{
			"buffer":0,
			"byteLength":160,
			"byteOffset":2604,
			"target":34962
		},
		{
			"buffer":0,
			"byteLength":60,
			"byteOffset":2764,
			"target":34963
		},
		{
			"buffer":0,
			"byteLength":432,
			"byteOffset":2824,
			"target":34962
		},
		{
			"buffer":0,
			"byteLength":432,
			"byteOffset":3256,
			"target":34962
		},
		{
			"buffer":0,
			"byteLength":288,
			"byteOffset":3688,
			"target":34962
		},
		{
			"buffer":0,
			"byteLength":120,
			"byteOffset":3976,
			"target":34963
		},
		{
			"buffer":0,
			"byteLength":432,
			"byteOffset":4096,
			"target":34962
		},
		{
			"buffer":0,
			"byteLength":432,
			"byteOffset":4528,
			"target":34962
		},
		{
			"buffer":0,
			"byteLength":288,
			"byteOffset":4960,
			"target":34962
		},
		{
			"buffer":0,
			"byteLength":864,
			"byteOffset":5248,
			"target":34962
		},
		{
			"buffer":0,
			"byteLength":864,
			"byteOffset":6112,
			"target":34962
		},
		{
			"buffer":0,
			"byteLength":576,
			"byteOffset":6976,
			"target":34962
		},
		{
			"buffer":0,
			"byteLength":216,
			"byteOffset":7552,
			"target":34963
		},
		{
			"buffer":0,
			"byteLength":672,
			"byteOffset":7768,
			"target":34962
		},
		{
			"buffer":0,
			"byteLength":672,
			"byteOffset":8440,
			"target":34962
		},
		{
			"buffer":0,
			"byteLength":448,
			"byteOffset":9112,
			"target":34962
		},
		{
			"buffer":0,
			"byteLength":168,
			"byteOffset":9560,
			"target":34963
		},
		{
			"buffer":0,
			"byteLength":8,
			"byteOffset":9728
		},
		{
			"buffer":0,
			"byteLength":24,
			"byteOffset":9736
		},
		{
			"buffer":0,
			"byteLength":224,
			"byteOffset":9760
		},
		{
			"buffer":0,
			"byteLength":896,
			"byteOffset":9984
		},
		{
			"buffer":0,
			"byteLength":24,
			"byteOffset":10880
		},
		{
			"buffer":0,
			"byteLength":24,
			"byteOffset":10904
		},
		{
			"buffer":0,
			"byteLength":896,
			"byteOffset":10928
		},
		{
			"buffer":0,
			"byteLength":24,
			"byteOffset":11824
		},
		{
			"buffer":0,
			"byteLength":24,
			"byteOffset":11848
		},
		{
			"buffer":0,
			"byteLength":896,
			"byteOffset":11872
		},
		{
			"buffer":0,
			"byteLength":24,
			"byteOffset":12768
		}
	],
	"samplers":[
		{
			"magFilter":9729,
			"minFilter":9987
		}
	],
	"buffers":[
		{
			"byteLength":12792,
			"uri":"figur.bin"
		}
	]
}
