{
	"asset":{
		"generator":"Khronos glTF Blender I/O v4.4.55",
		"version":"2.0"
	},
	"extensionsUsed":[
		"KHR_materials_unlit"
	],
	"scene":0,
	"scenes":[
		{
			"name":"Scene",
			"nodes":[
				11
			]
		}
	],
	"nodes":[
		{
			"mesh":0,
			"name":"Sphere",
			"scale":[
				0.337178111076355,
				0.337178111076355,
				0.3610454499721527
			],
			"translation":[
				0,
				-1.203926682472229,
				-1.3724749088287354
			]
		},
		{
			"children":[
				0
			],
			"mesh":1,
			"name":"Cube.004",
			"scale":[
				1,
				1,
				0.9338938593864441
			],
			"translation":[
				0,
				-0.9116778373718262,
				1.0308641195297241
			]
		},
		{
			"children":[
				1
			],
			"name":"Empty",
			"translation":[
				0,
				4.312605381011963,
				-1.0308641195297241
			]
		},
		{
			"mesh":2,
			"name":"Cylinder.001",
			"rotation":[
				-0.7071068286895752,
				0.7071068286895752,
				0,
				1.1520233300643667e-07
			],
			"scale":[
				0.5895338654518127,
				1.8488802909851074,
				0.5895338654518127
			],
			"translation":[
				-0.28382012248039246,
				-0.05078387260437012,
				-0.005251977127045393
			]
		},
		{
			"children":[
				3
			],
			"mesh":3,
			"name":"Sphere.001",
			"rotation":[
				0,
				-1,
				0,
				1.633018626989724e-07
			],
			"scale":[
				0.337178111076355,
				0.337178111076355,
				0.3610454499721527
			],
			"translation":[
				0,
				-1.203926682472229,
				1.3901994228363037
			]
		},
		{
			"children":[
				4
			],
			"mesh":4,
			"name":"Cube.003",
			"scale":[
				1,
				1,
				0.9338938593864441
			],
			"translation":[
				0,
				-0.9116778373718262,
				-1.0308641195297241
			]
		},
		{
			"children":[
				5
			],
			"name":"Empty.001",
			"translation":[
				0,
				4.312605381011963,
				1.0308641195297241
			]
		},
		{
			"mesh":5,
			"name":"Cube.001",
			"scale":[
				0.6261999011039734,
				0.5044982433319092,
				0.15212251245975494
			],
			"translation":[
				0,
				-3.3513126373291016,
				1.3231388330459595
			]
		},
		{
			"mesh":6,
			"name":"Cylinder",
			"rotation":[
				0,
				-0.7071068286895752,
				0,
				0.7071068286895752
			],
			"scale":[
				1.462958812713623,
				5.090939044952393,
				1.462958812713623
			],
			"translation":[
				-0.012961258180439472,
				-25.79364585876465,
				-0.039242446422576904
			]
		},
		{
			"children":[
				7,
				8
			],
			"mesh":7,
			"name":"Cube.002",
			"rotation":[
				0,
				0.7071068286895752,
				0,
				0.7071068286895752
			],
			"scale":[
				0.13780523836612701,
				0.0396004319190979,
				0.13780523836612701
			],
			"translation":[
				-0.04318275302648544,
				0.32368922233581543,
				0
			]
		},
		{
			"children":[
				9
			],
			"name":"Empty.002",
			"scale":[
				4.96023416519165,
				4.96023416519165,
				4.96023416519165
			],
			"translation":[
				0.2410205751657486,
				4.407679557800293,
				-0.008859623223543167
			]
		},
		{
			"children":[
				2,
				6,
				10
			],
			"mesh":8,
			"name":"Cube",
			"translation":[
				0,
				-0.946674108505249,
				0
			]
		}
	],
	"animations":[
		{
			"channels":[
				{
					"sampler":0,
					"target":{
						"node":2,
						"path":"translation"
					}
				},
				{
					"sampler":1,
					"target":{
						"node":2,
						"path":"rotation"
					}
				},
				{
					"sampler":2,
					"target":{
						"node":2,
						"path":"scale"
					}
				}
			],
			"name":"EmptyAction",
			"samplers":[
				{
					"input":35,
					"interpolation":"STEP",
					"output":36
				},
				{
					"input":37,
					"interpolation":"LINEAR",
					"output":38
				},
				{
					"input":35,
					"interpolation":"STEP",
					"output":39
				}
			]
		},
		{
			"channels":[
				{
					"sampler":0,
					"target":{
						"node":6,
						"path":"translation"
					}
				},
				{
					"sampler":1,
					"target":{
						"node":6,
						"path":"rotation"
					}
				},
				{
					"sampler":2,
					"target":{
						"node":6,
						"path":"scale"
					}
				}
			],
			"name":"Walk",
			"samplers":[
				{
					"input":35,
					"interpolation":"STEP",
					"output":40
				},
				{
					"input":37,
					"interpolation":"LINEAR",
					"output":41
				},
				{
					"input":35,
					"interpolation":"STEP",
					"output":42
				}
			]
		},
		{
			"channels":[
				{
					"sampler":0,
					"target":{
						"node":10,
						"path":"translation"
					}
				},
				{
					"sampler":1,
					"target":{
						"node":10,
						"path":"rotation"
					}
				},
				{
					"sampler":2,
					"target":{
						"node":10,
						"path":"scale"
					}
				}
			],
			"name":"ShakeHead",
			"samplers":[
				{
					"input":43,
					"interpolation":"STEP",
					"output":44
				},
				{
					"input":45,
					"interpolation":"LINEAR",
					"output":46
				},
				{
					"input":43,
					"interpolation":"STEP",
					"output":47
				}
			]
		}
	],
	"materials":[
		{
			"doubleSided":true,
			"extensions":{
				"KHR_materials_unlit":{}
			},
			"name":"GuardTextured",
			"pbrMetallicRoughness":{
				"baseColorTexture":{
					"index":0
				},
				"metallicFactor":0,
				"roughnessFactor":0.9
			}
		}
	],
	"meshes":[
		{
			"name":"Sphere",
			"primitives":[
				{
					"attributes":{
						"POSITION":0,
						"NORMAL":1,
						"TEXCOORD_0":2
					},
					"indices":3,
					"material":0
				}
			]
		},
		{
			"name":"Cube.006",
			"primitives":[
				{
					"attributes":{
						"POSITION":4,
						"NORMAL":5,
						"TEXCOORD_0":6
					},
					"indices":7,
					"material":0
				}
			]
		},
		{
			"name":"Cylinder.001",
			"primitives":[
				{
					"attributes":{
						"POSITION":8,
						"NORMAL":9,
						"TEXCOORD_0":10
					},
					"indices":11,
					"material":0
				}
			]
		},
		{
			"name":"Sphere.001",
			"primitives":[
				{
					"attributes":{
						"POSITION":12,
						"NORMAL":13,
						"TEXCOORD_0":14
					},
					"indices":3,
					"material":0
				}
			]
		},
		{
			"name":"Cube.005",
			"primitives":[
				{
					"attributes":{
						"POSITION":15,
						"NORMAL":16,
						"TEXCOORD_0":17
					},
					"indices":18,
					"material":0
				}
			]
		},
		{
			"name":"Cube.003",
			"primitives":[
				{
					"attributes":{
						"POSITION":19,
						"NORMAL":20,
						"TEXCOORD_0":21
					},
					"indices":22,
					"material":0
				}
			]
		},
		{
			"name":"Cylinder",
			"primitives":[
				{
					"attributes":{
						"POSITION":23,
						"NORMAL":24,
						"TEXCOORD_0":25
					},
					"indices":26,
					"material":0
				}
			]
		},
		{
			"name":"Cube.004",
			"primitives":[
				{
					"attributes":{
						"POSITION":27,
						"NORMAL":28,
						"TEXCOORD_0":29
					},
					"indices":30,
					"material":0
				}
			]
		},
		{
			"name":"Cube",
			"primitives":[
				{
					"attributes":{
						"POSITION":31,
						"NORMAL":32,
						"TEXCOORD_0":33
					},
					"indices":34,
					"material":0
				}
			]
		}
	],
	"textures":[
		{
			"sampler":0,
			"source":0
		}
	],
	"images":[
		{
			"mimeType":"image/png",
			"name":"guardtext",
			"uri":"guardtext.png"
		}
	],
	"accessors":[
		{
			"bufferView":0,
			"componentType":5126,
			"count":118,
			"max":[
				0.9510565996170044,
				1,
				0.8090170621871948
			],
			"min":[
				-0.9510565996170044,
				-1,
				-1
			],
			"type":"VEC3"
		},
		{
			"bufferView":1,
			"componentType":5126,
			"count":118,
			"type":"VEC3"
		},
		{
			"bufferView":2,
			"componentType":5126,
			"count":118,
			"type":"VEC2"
		},
		{
			"bufferView":3,
			"componentType":5123,
			"count":180,
			"type":"SCALAR"
		},
		{
			"bufferView":4,
			"componentType":5126,
			"count":126,
			"max":[
				0.29002654552459717,
				0.9948635101318359,
				-1.1038343906402588
			],
			"min":[
				-0.29002654552459717,
				-1.0157833099365234,
				-1.645188570022583
			],
			"type":"VEC3"
		},
		{
			"bufferView":5,
			"componentType":5126,
			"count":126,
			"type":"VEC3"
		},
		{
			"bufferView":6,
			"componentType":5126,
			"count":126,
			"type":"VEC2"
		},
		{
			"bufferView":7,
			"componentType":5123,
			"count":240,
			"type":"SCALAR"
		},
		{
			"bufferView":8,
			"componentType":5126,
			"count":96,
			"max":[
				1.7621508836746216,
				1.2121853828430176,
				1.762150526046753
			],
			"min":[
				-1.7621508836746216,
				-1,
				-1.7621512413024902
			],
			"type":"VEC3"
		},
		{
			"bufferView":9,
			"componentType":5126,
			"count":96,
			"type":"VEC3"
		},
		{
			"bufferView":10,
			"componentType":5126,
			"count":96,
			"type":"VEC2"
		},
		{
			"bufferView":11,
			"componentType":5123,
			"count":180,
			"type":"SCALAR"
		},
		{
			"bufferView":12,
			"componentType":5126,
			"count":118,
			"max":[
				0.9510565996170044,
				1,
				0.8090170621871948
			],
			"min":[
				-0.9510565996170044,
				-1,
				-1
			],
			"type":"VEC3"
		},
		{
			"bufferView":13,
			"componentType":5126,
			"count":118,
			"type":"VEC3"
		},
		{
			"bufferView":14,
			"componentType":5126,
			"count":118,
			"type":"VEC2"
		},
		{
			"bufferView":15,
			"componentType":5126,
			"count":126,
			"max":[
				0.29002654552459717,
				0.9948635101318359,
				1.645188570022583
			],
			"min":[
				-0.29002654552459717,
				-1.0157833099365234,
				1.1038343906402588
			],
			"type":"VEC3"
		},
		{
			"bufferView":16,
			"componentType":5126,
			"count":126,
			"type":"VEC3"
		},
		{
			"bufferView":17,
			"componentType":5126,
			"count":126,
			"type":"VEC2"
		},
		{
			"bufferView":18,
			"componentType":5123,
			"count":240,
			"type":"SCALAR"
		},
		{
			"bufferView":19,
			"componentType":5126,
			"count":180,
			"max":[
				1.060346007347107,
				1,
				1.2794015407562256
			],
			"min":[
				-1.060346007347107,
				-2.6689374446868896,
				-1.0069475173950195
			],
			"type":"VEC3"
		},
		{
			"bufferView":20,
			"componentType":5126,
			"count":180,
			"type":"VEC3"
		},
		{
			"bufferView":21,
			"componentType":5126,
			"count":180,
			"type":"VEC2"
		},
		{
			"bufferView":22,
			"componentType":5123,
			"count":288,
			"type":"SCALAR"
		},
		{
			"bufferView":23,
			"componentType":5126,
			"count":152,
			"max":[
				1.5684043169021606,
				5.555495262145996,
				1.2382365465164185
			],
			"min":[
				-1.1701639890670776,
				4.580358505249023,
				-1.3660916090011597
			],
			"type":"VEC3"
		},
		{
			"bufferView":24,
			"componentType":5126,
			"count":152,
			"type":"VEC3"
		},
		{
			"bufferView":25,
			"componentType":5126,
			"count":152,
			"type":"VEC2"
		},
		{
			"bufferView":26,
			"componentType":5123,
			"count":240,
			"type":"SCALAR"
		},
		{
			"bufferView":27,
			"componentType":5126,
			"count":388,
			"max":[
				1.3092305660247803,
				1.5220017433166504,
				1.3961862325668335
			],
			"min":[
				-1.3092305660247803,
				-8.23173713684082,
				-1.2714067697525024
			],
			"type":"VEC3"
		},
		{
			"bufferView":28,
			"componentType":5126,
			"count":388,
			"type":"VEC3"
		},
		{
			"bufferView":29,
			"componentType":5126,
			"count":388,
			"type":"VEC2"
		},
		{
			"bufferView":30,
			"componentType":5123,
			"count":480,
			"type":"SCALAR"
		},
		{
			"bufferView":31,
			"componentType":5126,
			"count":1385,
			"max":[
				0.855615496635437,
				4.656503200531006,
				1.1377434730529785
			],
			"min":[
				-0.855615496635437,
				0,
				-1.1377434730529785
			],
			"type":"VEC3"
		},
		{
			"bufferView":32,
			"componentType":5126,
			"count":1385,
			"type":"VEC3"
		},
		{
			"bufferView":33,
			"componentType":5126,
			"count":1385,
			"type":"VEC2"
		},
		{
			"bufferView":34,
			"componentType":5123,
			"count":2364,
			"type":"SCALAR"
		},
		{
			"bufferView":35,
			"componentType":5126,
			"count":2,
			"max":[
				3.75
			],
			"min":[
				2.0833333333333335
			],
			"type":"SCALAR"
		},
		{
			"bufferView":36,
			"componentType":5126,
			"count":2,
			"type":"VEC3"
		},
		{
			"bufferView":37,
			"componentType":5126,
			"count":41,
			"max":[
				3.75
			],
			"min":[
				2.0833333333333335
			],
			"type":"SCALAR"
		},
		{
			"bufferView":38,
			"componentType":5126,
			"count":41,
			"type":"VEC4"
		},
		{
			"bufferView":39,
			"componentType":5126,
			"count":2,
			"type":"VEC3"
		},
		{
			"bufferView":40,
			"componentType":5126,
			"count":2,
			"type":"VEC3"
		},
		{
			"bufferView":41,
			"componentType":5126,
			"count":41,
			"type":"VEC4"
		},
		{
			"bufferView":42,
			"componentType":5126,
			"count":2,
			"type":"VEC3"
		},
		{
			"bufferView":43,
			"componentType":5126,
			"count":2,
			"max":[
				5.416666666666667
			],
			"min":[
				4.166666666666667
			],
			"type":"SCALAR"
		},
		{
			"bufferView":44,
			"componentType":5126,
			"count":2,
			"type":"VEC3"
		},
		{
			"bufferView":45,
			"componentType":5126,
			"count":31,
			"max":[
				5.416666666666667
			],
			"min":[
				4.166666666666667
			],
			"type":"SCALAR"
		},
		{
			"bufferView":46,
			"componentType":5126,
			"count":31,
			"type":"VEC4"
		},
		{
			"bufferView":47,
			"componentType":5126,
			"count":2,
			"type":"VEC3"
		}
	],
	"bufferViews":[
		{
			"buffer":0,
			"byteLength":1416,
			"byteOffset":0,
			"target":34962
		},
		{
			"buffer":0,
			"byteLength":1416,
			"byteOffset":1416,
			"target":34962
		},
		{
			"buffer":0,
			"byteLength":944,
			"byteOffset":2832,
			"target":34962
		},
		{
			"buffer":0,
			"byteLength":360,
			"byteOffset":3776,
			"target":34963
		},
		{
			"buffer":0,
			"byteLength":1512,
			"byteOffset":4136,
			"target":34962
		},
		{
			"buffer":0,
			"byteLength":1512,
			"byteOffset":5648,
			"target":34962
		},
		{
			"buffer":0,
			"byteLength":1008,
			"byteOffset":7160,
			"target":34962
		},
		{
			"buffer":0,
			"byteLength":480,
			"byteOffset":8168,
			"target":34963
		},
		{
			"buffer":0,
			"byteLength":1152,
			"byteOffset":8648,
			"target":34962
		},
		{
			"buffer":0,
			"byteLength":1152,
			"byteOffset":9800,
			"target":34962
		},
		{
			"buffer":0,
			"byteLength":768,
			"byteOffset":10952,
			"target":34962
		},
		{
			"buffer":0,
			"byteLength":360,
			"byteOffset":11720,
			"target":34963
		},
		{
			"buffer":0,
			"byteLength":1416,
			"byteOffset":12080,
			"target":34962
		},
		{
			"buffer":0,
			"byteLength":1416,
			"byteOffset":13496,
			"target":34962
		},
		{
			"buffer":0,
			"byteLength":944,
			"byteOffset":14912,
			"target":34962
		},
		{
			"buffer":0,
			"byteLength":1512,
			"byteOffset":15856,
			"target":34962
		},
		{
			"buffer":0,
			"byteLength":1512,
			"byteOffset":17368,
			"target":34962
		},
		{
			"buffer":0,
			"byteLength":1008,
			"byteOffset":18880,
			"target":34962
		},
		{
			"buffer":0,
			"byteLength":480,
			"byteOffset":19888,
			"target":34963
		},
		{
			"buffer":0,
			"byteLength":2160,
			"byteOffset":20368,
			"target":34962
		},
		{
			"buffer":0,
			"byteLength":2160,
			"byteOffset":22528,
			"target":34962
		},
		{
			"buffer":0,
			"byteLength":1440,
			"byteOffset":24688,
			"target":34962
		},
		{
			"buffer":0,
			"byteLength":576,
			"byteOffset":26128,
			"target":34963
		},
		{
			"buffer":0,
			"byteLength":1824,
			"byteOffset":26704,
			"target":34962
		},
		{
			"buffer":0,
			"byteLength":1824,
			"byteOffset":28528,
			"target":34962
		},
		{
			"buffer":0,
			"byteLength":1216,
			"byteOffset":30352,
			"target":34962
		},
		{
			"buffer":0,
			"byteLength":480,
			"byteOffset":31568,
			"target":34963
		},
		{
			"buffer":0,
			"byteLength":4656,
			"byteOffset":32048,
			"target":34962
		},
		{
			"buffer":0,
			"byteLength":4656,
			"byteOffset":36704,
			"target":34962
		},
		{
			"buffer":0,
			"byteLength":3104,
			"byteOffset":41360,
			"target":34962
		},
		{
			"buffer":0,
			"byteLength":960,
			"byteOffset":44464,
			"target":34963
		},
		{
			"buffer":0,
			"byteLength":16620,
			"byteOffset":45424,
			"target":34962
		},
		{
			"buffer":0,
			"byteLength":16620,
			"byteOffset":62044,
			"target":34962
		},
		{
			"buffer":0,
			"byteLength":11080,
			"byteOffset":78664,
			"target":34962
		},
		{
			"buffer":0,
			"byteLength":4728,
			"byteOffset":89744,
			"target":34963
		},
		{
			"buffer":0,
			"byteLength":8,
			"byteOffset":94472
		},
		{
			"buffer":0,
			"byteLength":24,
			"byteOffset":94480
		},
		{
			"buffer":0,
			"byteLength":164,
			"byteOffset":94504
		},
		{
			"buffer":0,
			"byteLength":656,
			"byteOffset":94668
		},
		{
			"buffer":0,
			"byteLength":24,
			"byteOffset":95324
		},
		{
			"buffer":0,
			"byteLength":24,
			"byteOffset":95348
		},
		{
			"buffer":0,
			"byteLength":656,
			"byteOffset":95372
		},
		{
			"buffer":0,
			"byteLength":24,
			"byteOffset":96028
		},
		{
			"buffer":0,
			"byteLength":8,
			"byteOffset":96052
		},
		{
			"buffer":0,
			"byteLength":24,
			"byteOffset":96060
		},
		{
			"buffer":0,
			"byteLength":124,
			"byteOffset":96084
		},
		{
			"buffer":0,
			"byteLength":496,
			"byteOffset":96208
		},
		{
			"buffer":0,
			"byteLength":24,
			"byteOffset":96704
		}
	],
	"samplers":[
		{
			"magFilter":9729,
			"minFilter":9987
		}
	],
	"buffers":[
		{
			"byteLength":96728,
			"uri":"guardedit.bin"
		}
	]
}
